<?xml version="1.0" standalone="no"?>
<!DOCTYPE svg PUBLIC "-//W3C//DTD SVG 20010904//EN"
 "http://www.w3.org/TR/2001/REC-SVG-20010904/DTD/svg10.dtd">
<svg version="1.0" xmlns="http://www.w3.org/2000/svg"
 width="500.000000pt" height="500.000000pt" viewBox="0 0 500.000000 500.000000"
 preserveAspectRatio="xMidYMid meet">

<g transform="translate(0.000000,500.000000) scale(0.100000,-0.100000)"
fill="#000000" stroke="none">
<path d="M1704 3356 c-191 -44 -432 -194 -636 -396 -104 -103 -144 -175 -135
-243 5 -35 16 -51 65 -98 64 -61 147 -104 357 -189 298 -120 424 -194 455
-270 17 -42 8 -134 -17 -168 -26 -36 -46 -45 -190 -86 -68 -20 -164 -52 -215
-72 -271 -107 -353 -172 -263 -210 83 -34 250 -6 413 71 113 54 171 95 279
197 45 43 87 78 95 78 11 0 11 2 0 9 -11 7 -11 16 2 55 21 60 20 101 -3 151
-40 88 -142 152 -458 286 -216 92 -299 135 -345 182 -33 32 -38 43 -38 82 0
86 71 179 255 333 178 149 339 238 453 249 66 7 98 -8 113 -54 21 -64 -13
-160 -128 -356 -41 -70 -72 -133 -70 -140 10 -26 248 252 285 333 33 70 40
146 18 188 -34 66 -166 96 -292 68z m16 -1455 c0 -12 -65 -70 -120 -108 -109
-74 -264 -133 -351 -133 -27 0 -49 4 -49 9 0 25 229 142 400 205 101 37 120
41 120 27z"/>
<path d="M2892 2559 c-62 -165 -69 -194 -52 -214 18 -22 47 -19 97 10 61 37
58 63 -3 30 -48 -26 -74 -31 -74 -17 0 13 44 137 79 225 34 85 38 107 18 107
-7 0 -35 -61 -65 -141z"/>
<path d="M2051 2497 c-9 -11 -8 -17 4 -27 12 -10 16 -9 21 5 9 23 -10 40 -25
22z"/>
<path d="M3475 2493 c-8 -23 13 -42 25 -23 13 21 12 27 -4 33 -8 3 -17 -1 -21
-10z"/>
<path d="M2560 2320 c-32 -95 -41 -133 -33 -141 8 -8 21 10 49 68 35 70 42 78
65 75 19 -2 34 6 58 33 17 20 31 42 31 50 0 50 -39 60 -80 20 -26 -25 -27 -25
-26 -4 2 57 -23 17 -64 -101z m131 82 c-12 -22 -51 -58 -51 -47 0 9 50 65 57
65 2 0 -1 -8 -6 -18z"/>
<path d="M3049 2411 c-35 -36 -38 -75 -7 -92 19 -10 25 -8 45 15 16 18 23 40
23 67 0 48 -19 52 -61 10z m17 -49 c-18 -16 -18 -16 -6 6 6 13 14 21 18 18 3
-4 -2 -14 -12 -24z"/>
<path d="M2011 2417 c-20 -25 -24 -72 -7 -86 20 -17 55 -4 106 39 47 38 33 48
-23 16 -59 -35 -72 -34 -53 3 20 37 3 58 -23 28z"/>
<path d="M2271 2409 c-31 -18 -35 -19 -43 -5 -13 24 -23 20 -36 -17 -26 -71
-9 -91 40 -49 18 16 44 35 57 42 22 11 24 11 18 -11 -10 -36 10 -52 40 -32 23
16 26 16 35 0 5 -9 17 -17 26 -17 21 0 122 67 122 80 0 15 -5 13 -63 -20 -52
-29 -53 -29 -65 -9 -10 15 -20 19 -37 15 -19 -5 -24 -2 -27 16 -4 30 -26 33
-67 7z"/>
<path d="M3215 2384 c-9 -25 -14 -52 -11 -61 5 -12 15 -5 47 31 23 26 49 46
61 46 42 0 10 25 -34 27 -46 2 -46 1 -63 -43z"/>
<path d="M3430 2401 c-14 -36 -11 -60 12 -75 13 -8 28 -2 72 28 64 44 66 68 2
31 -53 -31 -71 -33 -56 -6 5 11 10 27 10 35 0 27 -27 18 -40 -13z"/>
<path d="M3690 2390 c-47 -41 -59 -45 -41 -12 8 15 7 23 -4 32 -13 10 -18 6
-30 -24 -12 -27 -13 -42 -5 -56 14 -27 32 -25 68 5 36 30 38 30 45 5 8 -30 33
-24 80 19 47 45 45 68 -3 27 -41 -34 -51 -33 -48 5 2 18 -1 33 -7 35 -5 2 -30
-15 -55 -36z"/>
<path d="M3971 2409 c-31 -18 -35 -19 -43 -5 -13 24 -23 20 -36 -17 -26 -71
-9 -91 40 -49 18 16 44 35 57 42 22 11 24 11 18 -11 -10 -36 10 -52 40 -32 23
16 26 16 35 0 5 -9 17 -17 26 -17 21 0 122 67 122 80 0 15 -5 13 -63 -20 -52
-29 -53 -29 -65 -9 -10 15 -20 19 -37 15 -19 -5 -24 -2 -27 16 -4 30 -26 33
-67 7z"/>
</g>
</svg>
