<?xml version="1.0" standalone="no"?>
<!DOCTYPE svg PUBLIC "-//W3C//DTD SVG 20010904//EN"
 "http://www.w3.org/TR/2001/REC-SVG-20010904/DTD/svg10.dtd">
<svg version="1.0" xmlns="http://www.w3.org/2000/svg"
 width="339.000000pt" height="189.000000pt" viewBox="0 0 339.000000 189.000000"
 preserveAspectRatio="xMidYMid meet">

<g transform="translate(0.000000,189.000000) scale(0.100000,-0.100000)"
fill="#000000" stroke="none">
<path d="M0 945 l0 -945 1695 0 1695 0 0 945 0 945 -1695 0 -1695 0 0 -945z
m1025 864 c23 -6 58 -23 76 -39 33 -27 34 -30 34 -101 0 -61 -5 -84 -28 -130
-28 -55 -259 -329 -277 -329 -20 0 -8 29 64 151 89 153 127 243 128 311 1 44
-2 54 -26 75 -32 27 -71 29 -147 7 -134 -40 -319 -161 -488 -319 -142 -135
-187 -226 -147 -304 23 -44 127 -104 327 -190 277 -119 316 -138 389 -186 116
-77 153 -164 116 -271 -20 -58 -20 -54 2 -54 11 -1 7 -6 -13 -17 -16 -9 -66
-50 -110 -92 -130 -123 -239 -186 -411 -236 -111 -32 -224 -34 -272 -5 -36 22
-34 36 10 76 52 48 309 155 506 211 70 19 133 41 141 47 23 18 51 88 51 129 0
119 -79 176 -470 337 -261 108 -340 153 -391 223 -74 102 1 234 245 431 273
221 518 319 691 275z m1063 -722 c-52 -129 -99 -269 -93 -275 3 -4 29 5 57 20
52 28 79 28 57 1 -19 -22 -85 -53 -113 -53 -51 0 -47 43 25 233 58 153 57 151
74 137 12 -10 11 -20 -7 -63z m-881 -143 c8 -20 -13 -42 -27 -28 -12 12 -3 44
11 44 5 0 12 -7 16 -16z m1430 0 c8 -21 -13 -42 -28 -27 -13 13 -5 43 11 43 6
0 13 -7 17 -16z m-879 -65 l8 -20 18 20 c22 24 64 28 72 6 17 -42 -41 -118
-84 -113 -22 3 -30 -6 -58 -62 -18 -36 -33 -71 -34 -77 0 -18 -19 -16 -26 2
-7 18 74 265 87 265 5 0 13 -9 17 -21z m-589 -37 c-21 -34 -3 -36 46 -7 26 15
49 24 52 21 10 -10 -25 -42 -72 -67 -36 -19 -46 -21 -59 -10 -20 17 -20 44 0
83 14 27 17 29 31 16 12 -13 13 -19 2 -36z m1074 29 c13 -52 -37 -126 -71
-105 -28 18 -26 58 3 93 30 35 60 40 68 12z m141 12 c3 -4 21 -7 38 -7 34 -1
53 -26 19 -26 -12 0 -36 -19 -57 -45 -27 -32 -41 -42 -50 -34 -9 7 -7 22 9 64
19 54 27 62 41 48z m210 -44 c-19 -37 -3 -39 48 -4 63 42 83 26 24 -19 -54
-41 -83 -51 -101 -36 -19 16 -19 43 1 81 12 25 18 28 29 19 12 -10 12 -16 -1
-41z m-1122 21 c7 -11 19 -20 27 -20 8 0 23 -8 33 -17 18 -16 22 -16 69 11 81
45 81 16 1 -35 -51 -32 -74 -36 -92 -14 -10 12 -15 12 -35 -1 -32 -21 -49 -9
-41 28 l6 30 -28 -17 c-15 -10 -39 -29 -55 -43 -20 -19 -30 -23 -38 -15 -12
12 -5 68 11 93 9 13 12 13 24 -3 13 -17 15 -17 47 2 42 26 56 26 71 1z m1412
-19 c-2 -37 0 -38 42 -6 38 29 44 30 44 11 0 -18 -72 -76 -93 -76 -9 0 -20 7
-25 16 -8 15 -13 14 -49 -7 -35 -20 -43 -21 -57 -10 -20 17 -20 34 0 72 25 49
49 27 28 -26 -5 -14 8 -7 42 22 27 23 54 41 59 39 6 -2 9 -17 9 -35z m288 19
c7 -11 19 -20 27 -20 8 0 23 -8 33 -17 18 -16 22 -16 69 11 81 45 81 16 1 -35
-51 -32 -74 -36 -92 -14 -10 12 -15 12 -35 -1 -32 -21 -49 -9 -41 28 l6 30
-28 -17 c-15 -10 -39 -29 -55 -43 -20 -19 -30 -23 -38 -15 -12 12 -5 68 11 93
9 13 12 13 24 -3 13 -17 15 -17 47 2 42 26 56 26 71 1z"/>
<path d="M715 316 c-192 -74 -385 -173 -385 -198 0 -13 79 -9 140 7 32 8 88
28 124 45 127 57 303 194 244 189 -7 0 -62 -20 -123 -43z"/>
<path d="M1790 835 c-13 -14 -21 -27 -18 -30 2 -3 15 6 28 20 13 14 21 27 18
30 -2 3 -15 -6 -28 -20z"/>
</g>
</svg>
