<?xml version="1.0" standalone="no"?>
<!DOCTYPE svg PUBLIC "-//W3C//DTD SVG 20010904//EN"
 "http://www.w3.org/TR/2001/REC-SVG-20010904/DTD/svg10.dtd">
<svg version="1.0" xmlns="http://www.w3.org/2000/svg"
 width="512.000000pt" height="512.000000pt" viewBox="0 0 512.000000 512.000000"
 preserveAspectRatio="xMidYMid meet">

<g transform="translate(0.000000,512.000000) scale(0.100000,-0.100000)"
fill="#000000" stroke="none">
<path d="M0 2560 l0 -2560 1418 1 c854 1 1381 5 1327 10 -1027 97 -1909 820
-2208 1809 -121 401 -142 876 -56 1290 92 446 329 878 669 1221 220 222 434
375 715 514 295 146 549 223 855 260 89 11 -111 13 -1307 14 l-1413 1 0 -2560z"/>
<path d="M3240 5113 c261 -27 518 -94 754 -199 84 -38 481 -250 539 -289 16
-11 -7 -27 -180 -125 -345 -197 -480 -298 -645 -485 -253 -286 -423 -660 -479
-1055 -23 -156 -17 -478 10 -635 58 -333 184 -632 372 -885 86 -116 254 -286
369 -374 169 -128 246 -171 563 -313 106 -47 193 -86 195 -87 3 -4 -381 -265
-455 -310 -121 -72 -354 -178 -500 -226 -202 -66 -371 -100 -613 -123 -19 -2
412 -5 958 -5 l992 -2 0 2560 0 2560 -957 -2 c-527 0 -942 -3 -923 -5z"/>
<path d="M2736 4678 c-379 -43 -773 -209 -1086 -458 -105 -83 -285 -268 -363
-372 -218 -291 -357 -626 -413 -993 -23 -155 -23 -483 0 -629 134 -841 776
-1525 1636 -1741 432 -109 904 -69 1305 110 l60 27 -25 17 c-166 109 -446 378
-574 551 -248 335 -404 709 -468 1125 -27 176 -29 500 -5 670 48 339 167 679
338 962 116 191 325 438 497 587 24 21 42 39 40 41 -15 15 -272 78 -385 95
-149 22 -407 26 -557 8z"/>
</g>
</svg>
